<svg width="39" height="12" viewBox="0 0 39 12" fill="none" xmlns="http://www.w3.org/2000/svg">
<g id="Group">
<path id="polygon9" d="M16.8126 11.535H13.7344L15.6597 0.499512H18.7378L16.8126 11.535Z" fill="#00579F"/>
<path id="path11" d="M27.9722 0.76963C27.3651 0.546342 26.402 0.299805 25.2113 0.299805C22.1714 0.299805 20.0307 1.80243 20.0176 3.95074C19.9923 5.53575 21.5502 6.41611 22.7154 6.9446C23.9064 7.48464 24.3112 7.83713 24.3112 8.3185C24.2991 9.0578 23.3489 9.39858 22.4626 9.39858C21.2336 9.39858 20.5751 9.22289 19.5744 8.81158L19.169 8.63525L18.7383 11.1125C19.4603 11.4174 20.7904 11.6879 22.1714 11.6998C25.4013 11.6998 27.5041 10.2204 27.529 7.93106C27.5413 6.67482 26.7187 5.71223 24.9451 4.92565C23.8685 4.42072 23.2091 4.08025 23.2091 3.56361C23.2218 3.09394 23.7668 2.61288 24.9822 2.61288C25.9829 2.58932 26.7182 2.8123 27.2752 3.03543L27.5536 3.15261L27.9722 0.76963Z" fill="#00579F"/>
<path id="path13" d="M32.0634 7.62553C32.3169 6.99155 33.2923 4.53788 33.2923 4.53788C33.2796 4.56144 33.5453 3.89221 33.6974 3.48136L33.9125 4.43225C33.9125 4.43225 34.4954 7.07378 34.622 7.62553C34.1409 7.62553 32.6714 7.62553 32.0634 7.62553ZM35.8631 0.499512H33.4821C32.7478 0.499512 32.1899 0.698926 31.8731 1.41513L27.3008 11.5349H30.5307C30.5307 11.5349 31.0625 10.1728 31.1768 9.87947C31.5311 9.87947 34.6732 9.87947 35.129 9.87947C35.2174 10.2669 35.4963 11.5349 35.4963 11.5349H38.3465L35.8631 0.499512Z" fill="#00579F"/>
<path id="path15" d="M11.1664 0.499512L8.15174 8.02467L7.82231 6.49848C7.26497 4.73745 5.51702 2.82414 3.56641 1.87279L6.3277 11.5233H9.58289L14.4214 0.499512H11.1664Z" fill="#00579F"/>
<path id="path17" d="M5.35095 0.499512H0.398324L0.347656 0.722487C4.21102 1.63826 6.76964 3.84571 7.82087 6.49894L6.74423 1.42715C6.56697 0.722331 6.02225 0.522761 5.35095 0.499512Z" fill="#FAA61A"/>
</g>
</svg>
