<svg width="33" height="20" viewBox="0 0 33 20" fill="none" xmlns="http://www.w3.org/2000/svg">
<g id="Group">
<g id="Group_2">
<path id="Vector" d="M20.55 17.863H11.8008V2.13916H20.55V17.863Z" fill="#FF5F00"/>
<g id="Group_3">
<path id="Vector_2" d="M12.3593 10C12.3593 6.81035 13.8528 3.9691 16.1784 2.13809C14.4777 0.799161 12.3314 5.33497e-07 9.99873 5.33497e-07C4.47644 5.33497e-07 0 4.47708 0 10C0 15.5229 4.47644 20 9.99873 20C12.3314 20 14.4777 19.2008 16.1784 17.8619C13.8528 16.0309 12.3593 13.1896 12.3593 10Z" fill="#EB001B"/>
</g>
<g id="Group_4">
<path id="Vector_3" d="M32.347 10C32.347 15.5229 27.8706 20 22.3483 20C20.0156 20 17.8693 19.2008 16.168 17.8619C18.4942 16.0309 19.9877 13.1896 19.9877 10C19.9877 6.81035 18.4942 3.9691 16.168 2.13809C17.8693 0.799161 20.0156 5.33497e-07 22.3483 5.33497e-07C27.8706 5.33497e-07 32.347 4.47708 32.347 10Z" fill="#F79E1B"/>
</g>
</g>
<g id="Group_5">
<path id="Vector_4" d="M7.52244 10.0631C7.52244 9.62633 7.80867 9.26749 8.27642 9.26749C8.72333 9.26749 9.02504 9.61086 9.02504 10.0631C9.02504 10.5154 8.72333 10.8588 8.27642 10.8588C7.80867 10.8588 7.52244 10.4999 7.52244 10.0631ZM9.53444 10.0631V8.82058H8.9941V9.12229C8.82271 8.89853 8.56266 8.75809 8.20917 8.75809C7.51232 8.75809 6.96602 9.30439 6.96602 10.0631C6.96602 10.8225 7.51232 11.3682 8.20917 11.3682C8.56266 11.3682 8.82271 11.2277 8.9941 11.004V11.3057H9.53444V10.0631ZM27.7942 10.0631C27.7942 9.62633 28.0805 9.26749 28.5482 9.26749C28.9957 9.26749 29.2968 9.61086 29.2968 10.0631C29.2968 10.5154 28.9957 10.8588 28.5482 10.8588C28.0805 10.8588 27.7942 10.4999 27.7942 10.0631ZM29.8068 10.0631V7.82261H29.2659V9.12229C29.0945 8.89853 28.8345 8.75809 28.481 8.75809C27.7841 8.75809 27.2378 9.30439 27.2378 10.0631C27.2378 10.8225 27.7841 11.3682 28.481 11.3682C28.8345 11.3682 29.0945 11.2277 29.2659 11.004V11.3057H29.8068V10.0631ZM16.2417 9.2419C16.5898 9.2419 16.8136 9.4603 16.8707 9.84473H15.5812C15.6389 9.48589 15.8567 9.2419 16.2417 9.2419ZM16.2524 8.75809C15.524 8.75809 15.0146 9.28832 15.0146 10.0631C15.0146 10.8534 15.5449 11.3682 16.2887 11.3682C16.663 11.3682 17.0058 11.2747 17.3075 11.02L17.0427 10.6195C16.8344 10.7856 16.569 10.8796 16.3197 10.8796C15.9715 10.8796 15.6544 10.7183 15.5764 10.2708H17.4218C17.4271 10.2036 17.4325 10.1357 17.4325 10.0631C17.4271 9.28832 16.9487 8.75809 16.2524 8.75809ZM22.777 10.0631C22.777 9.62633 23.0633 9.26749 23.531 9.26749C23.9779 9.26749 24.2796 9.61086 24.2796 10.0631C24.2796 10.5154 23.9779 10.8588 23.531 10.8588C23.0633 10.8588 22.777 10.4999 22.777 10.0631ZM24.789 10.0631V8.82058H24.2487V9.12229C24.0767 8.89853 23.8172 8.75809 23.4638 8.75809C22.7669 8.75809 22.2206 9.30439 22.2206 10.0631C22.2206 10.8225 22.7669 11.3682 23.4638 11.3682C23.8172 11.3682 24.0767 11.2277 24.2487 11.004V11.3057H24.789V10.0631ZM19.7254 10.0631C19.7254 10.8171 20.2503 11.3682 21.0512 11.3682C21.4256 11.3682 21.6749 11.2849 21.9451 11.0718L21.6856 10.635C21.4827 10.7808 21.2696 10.8588 21.0352 10.8588C20.6037 10.8534 20.2866 10.5416 20.2866 10.0631C20.2866 9.58467 20.6037 9.27285 21.0352 9.26749C21.2696 9.26749 21.4827 9.34545 21.6856 9.49125L21.9451 9.05445C21.6749 8.8414 21.4256 8.75809 21.0512 8.75809C20.2503 8.75809 19.7254 9.30915 19.7254 10.0631ZM26.6921 8.75809C26.3803 8.75809 26.1774 8.90389 26.0369 9.12229V8.82058H25.5013V11.3057H26.0423V9.91257C26.0423 9.50136 26.219 9.27285 26.5725 9.27285C26.682 9.27285 26.7963 9.28832 26.9105 9.33533L27.0771 8.82593C26.9575 8.77892 26.8016 8.75809 26.6921 8.75809ZM12.207 9.01815C11.9469 8.84676 11.5887 8.75809 11.1936 8.75809C10.5639 8.75809 10.1587 9.0598 10.1587 9.55373C10.1587 9.95899 10.4604 10.2089 11.0162 10.2869L11.2715 10.3232C11.5679 10.3648 11.7077 10.4428 11.7077 10.5832C11.7077 10.7755 11.5101 10.8849 11.1412 10.8849C10.7669 10.8849 10.4967 10.7653 10.3146 10.6249L10.0599 11.0456C10.3563 11.264 10.7306 11.3682 11.1358 11.3682C11.8535 11.3682 12.2695 11.0302 12.2695 10.5571C12.2695 10.1203 11.9422 9.89174 11.4012 9.81378L11.1465 9.77689C10.9127 9.74594 10.7252 9.69953 10.7252 9.5329C10.7252 9.3508 10.902 9.2419 11.1983 9.2419C11.5155 9.2419 11.8226 9.36152 11.9731 9.45494L12.207 9.01815ZM19.1791 8.75809C18.8673 8.75809 18.6643 8.90389 18.5245 9.12229V8.82058H17.9889V11.3057H18.5293V9.91257C18.5293 9.50136 18.706 9.27285 19.0595 9.27285C19.169 9.27285 19.2832 9.28832 19.3975 9.33533L19.5641 8.82593C19.4445 8.77892 19.2886 8.75809 19.1791 8.75809ZM14.5677 8.82058H13.684V8.0666H13.1377V8.82058H12.6337V9.3145H13.1377V10.4482C13.1377 11.0248 13.3615 11.3682 14.0006 11.3682C14.2351 11.3682 14.5052 11.2956 14.6766 11.1759L14.5207 10.713C14.3594 10.8064 14.1827 10.8534 14.0423 10.8534C13.7721 10.8534 13.684 10.6868 13.684 10.4374V9.3145H14.5677V8.82058ZM6.48817 11.3057V9.74594C6.48817 9.15859 6.11385 8.76345 5.51043 8.75809C5.19325 8.75274 4.86595 8.85152 4.63684 9.20025C4.46545 8.92472 4.19528 8.75809 3.81561 8.75809C3.5502 8.75809 3.29074 8.83605 3.08781 9.12705V8.82058H2.54688V11.3057H3.09257V9.92804C3.09257 9.4966 3.3318 9.26749 3.70135 9.26749C4.06019 9.26749 4.2417 9.50136 4.2417 9.92269V11.3057H4.78799V9.92804C4.78799 9.4966 5.03733 9.26749 5.39617 9.26749C5.76513 9.26749 5.94187 9.50136 5.94187 9.92269V11.3057H6.48817Z" fill="white"/>
</g>
</g>
</svg>
