<svg width="98" height="19" viewBox="0 0 98 19" fill="none" xmlns="http://www.w3.org/2000/svg">
<g id="PayPal">
<g id="PayPal_2">
<g id="Group">
<g id="Group_2">
<path id="Vector" d="M34.0618 1.52832H29.0997C28.7601 1.52832 28.4713 1.77501 28.4184 2.11022L26.4115 14.8345C26.3716 15.0855 26.566 15.3119 26.8207 15.3119H29.1896C29.5292 15.3119 29.818 15.0652 29.871 14.7293L30.4122 11.2973C30.4645 10.9614 30.754 10.7147 31.0928 10.7147H32.6637C35.9323 10.7147 37.8188 9.13297 38.3115 5.99853C38.5335 4.62721 38.3209 3.54974 37.6788 2.79516C36.9735 1.96656 35.7226 1.52832 34.0618 1.52832ZM34.6343 6.17557C34.3629 7.9561 33.0025 7.9561 31.687 7.9561H30.9383L31.4636 4.63084C31.4948 4.42985 31.6689 4.28184 31.8721 4.28184H32.2153C33.1113 4.28184 33.9566 4.28184 34.3934 4.79264C34.6539 5.09738 34.7337 5.55013 34.6343 6.17557Z" fill="#253B80"/>
<path id="Vector_2" d="M48.8952 6.11703H46.519C46.3166 6.11703 46.1417 6.26504 46.1105 6.46603L46.0053 7.13064L45.8392 6.88976C45.3247 6.14315 44.1776 5.89355 43.0327 5.89355C40.4068 5.89355 38.1641 7.88233 37.7273 10.6721C37.5002 12.0638 37.8231 13.3944 38.6125 14.3224C39.3366 15.1757 40.3727 15.5312 41.6055 15.5312C43.7212 15.5312 44.8945 14.1708 44.8945 14.1708L44.7885 14.8311C44.7486 15.0836 44.9431 15.3099 45.1963 15.3099H47.3367C47.677 15.3099 47.9643 15.0632 48.018 14.7273L49.3023 6.59445C49.3429 6.34413 49.1492 6.11703 48.8952 6.11703ZM45.583 10.7418C45.3537 12.0993 44.2763 13.0106 42.9021 13.0106C42.2121 13.0106 41.6606 12.7893 41.3065 12.3699C40.9554 11.9535 40.8219 11.3607 40.9336 10.7004C41.1476 9.3545 42.2433 8.41344 43.5964 8.41344C44.2712 8.41344 44.8197 8.63764 45.1811 9.06065C45.5431 9.488 45.6868 10.0844 45.583 10.7418Z" fill="#253B80"/>
<path id="Vector_3" d="M61.5477 6.11719H59.1599C58.932 6.11719 58.718 6.23038 58.5888 6.41975L55.2955 11.2709L53.8995 6.60912C53.8117 6.31744 53.5425 6.11719 53.2378 6.11719H50.8913C50.6062 6.11719 50.4081 6.39581 50.4988 6.66426L53.129 14.3828L50.6562 17.8735C50.4618 18.1485 50.6577 18.5265 50.9936 18.5265H53.3785C53.6049 18.5265 53.8168 18.4162 53.9452 18.2305L61.8873 6.76657C62.0774 6.49231 61.8822 6.11719 61.5477 6.11719Z" fill="#253B80"/>
<path id="Vector_4" d="M69.4563 1.52734H64.4935C64.1546 1.52734 63.8659 1.77404 63.8129 2.10925L61.806 14.8335C61.7661 15.0845 61.9605 15.3109 62.2138 15.3109H64.7605C64.997 15.3109 65.1995 15.1382 65.2365 14.9031L65.806 11.2964C65.8583 10.9604 66.1478 10.7137 66.4866 10.7137H68.0567C71.3261 10.7137 73.2119 9.13199 73.7053 5.99755C73.928 4.62623 73.714 3.54877 73.0718 2.79418C72.3673 1.96558 71.1172 1.52734 69.4563 1.52734ZM70.0288 6.17459C69.7582 7.95513 68.3978 7.95512 67.0816 7.95512H66.3335L66.8596 4.62986C66.8908 4.42888 67.0634 4.28086 67.2673 4.28086H67.6105C68.5059 4.28086 69.3519 4.28086 69.7887 4.79166C70.0491 5.0964 70.1282 5.54915 70.0288 6.17459Z" fill="#179BD7"/>
<path id="Vector_5" d="M84.2867 6.11703H81.9119C81.708 6.11703 81.5346 6.26504 81.5041 6.46603L81.3989 7.13064L81.232 6.88976C80.7176 6.14315 79.5712 5.89355 78.4263 5.89355C75.8005 5.89355 73.5585 7.88233 73.1217 10.6721C72.8953 12.0638 73.2167 13.3944 74.0061 14.3224C74.7317 15.1757 75.7663 15.5312 76.9991 15.5312C79.1148 15.5312 80.2881 14.1708 80.2881 14.1708L80.1821 14.8311C80.1422 15.0836 80.3367 15.3099 80.5914 15.3099H82.7311C83.0699 15.3099 83.3587 15.0632 83.4116 14.7273L84.6966 6.59445C84.7358 6.34413 84.5413 6.11703 84.2867 6.11703ZM80.9745 10.7418C80.7466 12.0993 79.6677 13.0106 78.2935 13.0106C77.6049 13.0106 77.0521 12.7893 76.698 12.3699C76.3468 11.9535 76.2147 11.3607 76.325 10.7004C76.5405 9.3545 77.6347 8.41344 78.9879 8.41344C79.6626 8.41344 80.2112 8.63764 80.5725 9.06065C80.936 9.488 81.0797 10.0844 80.9745 10.7418Z" fill="#179BD7"/>
<path id="Vector_6" d="M87.0887 1.87609L85.0521 14.8332C85.0122 15.0843 85.2066 15.3107 85.4599 15.3107H87.5074C87.8477 15.3107 88.1365 15.064 88.1887 14.728L90.1971 2.00451C90.237 1.75347 90.0425 1.52637 89.7893 1.52637H87.4965C87.2941 1.52709 87.1199 1.67511 87.0887 1.87609Z" fill="#179BD7"/>
</g>
<g id="Group_3">
<path id="Vector_7" d="M5.30709 18.1042L5.62402 16.1227L4.91804 16.1066H1.54688L3.88966 1.48505C3.89693 1.44091 3.92057 1.39976 3.95511 1.37053C3.98965 1.3413 4.03389 1.3252 4.07994 1.3252H9.7642C11.6513 1.3252 12.9536 1.71172 13.6335 2.47461C13.9522 2.8325 14.1553 3.2065 14.2534 3.61807C14.3564 4.04992 14.3583 4.56588 14.2577 5.19517L14.2504 5.2411V5.64432L14.5692 5.82207C14.8376 5.96224 15.0509 6.12269 15.2145 6.30641C15.4872 6.61241 15.6636 7.00131 15.7381 7.46239C15.8151 7.93659 15.7896 8.50087 15.6636 9.1397C15.5181 9.87456 15.283 10.5146 14.9655 11.0383C14.6734 11.5209 14.3013 11.9211 13.8595 12.2313C13.4378 12.5259 12.9366 12.7496 12.37 12.8928C11.821 13.0335 11.195 13.1045 10.5084 13.1045H10.066C9.74965 13.1045 9.44241 13.2166 9.20123 13.4177C8.95943 13.6229 8.79945 13.9032 8.75037 14.2098L8.71704 14.3881L8.15709 17.8805L8.13164 18.0088C8.12498 18.0493 8.11346 18.0696 8.09649 18.0833C8.08134 18.0959 8.05953 18.1042 8.03832 18.1042H5.30709Z" fill="#253B80"/>
<path id="Vector_8" d="M14.8732 5.28711C14.8562 5.39388 14.8368 5.50304 14.815 5.61517C14.0654 9.40343 11.5008 10.7121 8.22537 10.7121H6.55767C6.1571 10.7121 5.81956 10.9984 5.75715 11.3873L4.90329 16.7175L4.6615 18.2284C4.6209 18.4837 4.82088 18.7139 5.08267 18.7139H8.04054C8.39081 18.7139 8.68835 18.4634 8.7435 18.1234L8.77259 17.9755L9.3295 14.4968L9.36525 14.3059C9.41979 13.9647 9.71794 13.7142 10.0682 13.7142H10.5106C13.3763 13.7142 15.6198 12.569 16.2754 9.2549C16.5494 7.87047 16.4075 6.71449 15.6828 5.90148C15.4634 5.65633 15.1913 5.45293 14.8732 5.28711Z" fill="#179BD7"/>
<path id="Vector_9" d="M14.0897 4.97968C13.9751 4.94688 13.857 4.91705 13.7358 4.89021C13.614 4.86396 13.4891 4.8407 13.3607 4.82042C12.911 4.74884 12.4183 4.71484 11.8905 4.71484H7.43521C7.32553 4.71484 7.2213 4.7393 7.12797 4.78344C6.92254 4.88067 6.76983 5.07214 6.73286 5.30655L5.78508 11.2153L5.75781 11.3877C5.82023 10.9988 6.15777 10.7125 6.55834 10.7125H8.22604C11.5015 10.7125 14.066 9.40319 14.8157 5.61553C14.8381 5.50339 14.8569 5.39424 14.8738 5.28747C14.6842 5.18845 14.4787 5.10375 14.2575 5.03158C14.203 5.01368 14.1466 4.99638 14.0897 4.97968Z" fill="#222D65"/>
<path id="Vector_10" d="M6.7323 5.30618C6.76927 5.07176 6.92198 4.88029 7.12741 4.78366C7.22134 4.73952 7.32497 4.71506 7.43465 4.71506H11.8899C12.4178 4.71506 12.9104 4.74906 13.3601 4.82064C13.4886 4.84092 13.6134 4.86418 13.7352 4.89043C13.8564 4.91727 13.9746 4.94709 14.0891 4.9799C14.1461 4.9966 14.2024 5.0139 14.2576 5.0312C14.4788 5.10337 14.6842 5.18867 14.8739 5.28709C15.0969 3.88715 14.8721 2.93397 14.103 2.07086C13.2553 1.12067 11.7251 0.713867 9.76714 0.713867H4.08288C3.68292 0.713867 3.34175 1.00018 3.27993 1.38968L0.912303 16.1615C0.865641 16.4538 1.09471 16.7175 1.39407 16.7175H4.9034L5.78452 11.2149L6.7323 5.30618Z" fill="#253B80"/>
</g>
</g>
</g>
</g>
</svg>
